<mxfile host="65bd71144e">
    <diagram id="hG5b_Shiqk1ZeHrBUxI9" name="Page-1">
        <mxGraphModel dx="1692" dy="777" grid="1" gridSize="10" guides="1" tooltips="1" connect="1" arrows="1" fold="1" page="1" pageScale="1" pageWidth="850" pageHeight="1100" background="none" math="0" shadow="0">
            <root>
                <mxCell id="0"/>
                <mxCell id="1" parent="0"/>
                <mxCell id="2" value="AffiliateStats" style="swimlane;fontStyle=0;align=center;verticalAlign=top;childLayout=stackLayout;horizontal=1;startSize=30;horizontalStack=0;resizeParent=1;resizeParentMax=0;resizeLast=0;collapsible=0;marginBottom=0;html=1;rounded=0;" parent="1" vertex="1">
                    <mxGeometry x="120" y="220" width="190" height="90" as="geometry"/>
                </mxCell>
                <mxCell id="5" value="&lt;font color=&quot;#ffffff&quot;&gt;_id : String&lt;/font&gt;" style="text;html=1;strokeColor=none;fillColor=none;align=left;verticalAlign=middle;spacingLeft=4;spacingRight=4;overflow=hidden;rotatable=0;points=[[0,0.5],[1,0.5]];portConstraint=eastwest;fontColor=#808080;rounded=0;" parent="2" vertex="1">
                    <mxGeometry y="30" width="190" height="20" as="geometry"/>
                </mxCell>
                <mxCell id="11" value="userId : String Ref" style="text;html=1;strokeColor=none;fillColor=none;align=left;verticalAlign=middle;spacingLeft=4;spacingRight=4;overflow=hidden;rotatable=0;points=[[0,0.5],[1,0.5]];portConstraint=eastwest;fontColor=#FFFFFF;rounded=0;" parent="2" vertex="1">
                    <mxGeometry y="50" width="190" height="20" as="geometry"/>
                </mxCell>
                <mxCell id="12" value="affiliateSales : Array&amp;lt;String Ref&amp;gt;" style="text;html=1;strokeColor=none;fillColor=none;align=left;verticalAlign=middle;spacingLeft=4;spacingRight=4;overflow=hidden;rotatable=0;points=[[0,0.5],[1,0.5]];portConstraint=eastwest;fontColor=#FFFFFF;rounded=0;" parent="2" vertex="1">
                    <mxGeometry y="70" width="190" height="20" as="geometry"/>
                </mxCell>
                <mxCell id="68" value="Transaction" style="swimlane;fontStyle=0;align=center;verticalAlign=top;childLayout=stackLayout;horizontal=1;startSize=30;horizontalStack=0;resizeParent=1;resizeParentMax=0;resizeLast=0;collapsible=0;marginBottom=0;html=1;rounded=0;" vertex="1" parent="1">
                    <mxGeometry x="120" y="370" width="170" height="110" as="geometry"/>
                </mxCell>
                <mxCell id="69" value="&lt;font color=&quot;#ffffff&quot;&gt;_id : String&lt;/font&gt;" style="text;html=1;strokeColor=none;fillColor=none;align=left;verticalAlign=middle;spacingLeft=4;spacingRight=4;overflow=hidden;rotatable=0;points=[[0,0.5],[1,0.5]];portConstraint=eastwest;fontColor=#808080;rounded=0;" vertex="1" parent="68">
                    <mxGeometry y="30" width="170" height="20" as="geometry"/>
                </mxCell>
                <mxCell id="70" value="affiliateId? : String Ref" style="text;html=1;strokeColor=none;fillColor=none;align=left;verticalAlign=middle;spacingLeft=4;spacingRight=4;overflow=hidden;rotatable=0;points=[[0,0.5],[1,0.5]];portConstraint=eastwest;fontColor=#FFFFFF;rounded=0;" vertex="1" parent="68">
                    <mxGeometry y="50" width="170" height="20" as="geometry"/>
                </mxCell>
                <mxCell id="71" value="cost : String" style="text;html=1;strokeColor=none;fillColor=none;align=left;verticalAlign=middle;spacingLeft=4;spacingRight=4;overflow=hidden;rotatable=0;points=[[0,0.5],[1,0.5]];portConstraint=eastwest;fontColor=#FFFFFF;rounded=0;" vertex="1" parent="68">
                    <mxGeometry y="70" width="170" height="20" as="geometry"/>
                </mxCell>
                <mxCell id="72" value="products : Array&amp;lt;String Ref&amp;gt;" style="text;html=1;strokeColor=none;fillColor=none;align=left;verticalAlign=middle;spacingLeft=4;spacingRight=4;overflow=hidden;rotatable=0;points=[[0,0.5],[1,0.5]];portConstraint=eastwest;fontColor=#FFFFFF;rounded=0;" vertex="1" parent="68">
                    <mxGeometry y="90" width="170" height="20" as="geometry"/>
                </mxCell>
                <mxCell id="73" style="edgeStyle=none;html=1;entryX=0;entryY=0.5;entryDx=0;entryDy=0;exitX=0;exitY=0.5;exitDx=0;exitDy=0;rounded=0;" edge="1" parent="1" source="12" target="69">
                    <mxGeometry relative="1" as="geometry">
                        <mxPoint x="400" y="170" as="sourcePoint"/>
                        <Array as="points">
                            <mxPoint x="80" y="300"/>
                            <mxPoint x="80" y="410"/>
                        </Array>
                    </mxGeometry>
                </mxCell>
                <mxCell id="74" value="OverallStats" style="swimlane;fontStyle=0;align=center;verticalAlign=top;childLayout=stackLayout;horizontal=1;startSize=30;horizontalStack=0;resizeParent=1;resizeParentMax=0;resizeLast=0;collapsible=0;marginBottom=0;html=1;rounded=0;" vertex="1" parent="1">
                    <mxGeometry x="310" y="20" width="230" height="190" as="geometry"/>
                </mxCell>
                <mxCell id="75" value="&lt;font color=&quot;#ffffff&quot;&gt;_id : String&lt;/font&gt;" style="text;html=1;strokeColor=none;fillColor=none;align=left;verticalAlign=middle;spacingLeft=4;spacingRight=4;overflow=hidden;rotatable=0;points=[[0,0.5],[1,0.5]];portConstraint=eastwest;fontColor=#808080;rounded=0;" vertex="1" parent="74">
                    <mxGeometry y="30" width="230" height="20" as="geometry"/>
                </mxCell>
                <mxCell id="76" value="yearlySalesTotal : Currency" style="text;html=1;strokeColor=none;fillColor=none;align=left;verticalAlign=middle;spacingLeft=4;spacingRight=4;overflow=hidden;rotatable=0;points=[[0,0.5],[1,0.5]];portConstraint=eastwest;fontColor=#FFFFFF;rounded=0;" vertex="1" parent="74">
                    <mxGeometry y="50" width="230" height="20" as="geometry"/>
                </mxCell>
                <mxCell id="77" value="yearlyTotalSoldUnits : Number" style="text;html=1;strokeColor=none;fillColor=none;align=left;verticalAlign=middle;spacingLeft=4;spacingRight=4;overflow=hidden;rotatable=0;points=[[0,0.5],[1,0.5]];portConstraint=eastwest;fontColor=#FFFFFF;rounded=0;" vertex="1" parent="74">
                    <mxGeometry y="70" width="230" height="20" as="geometry"/>
                </mxCell>
                <mxCell id="78" value="year : Number" style="text;html=1;strokeColor=none;fillColor=none;align=left;verticalAlign=middle;spacingLeft=4;spacingRight=4;overflow=hidden;rotatable=0;points=[[0,0.5],[1,0.5]];portConstraint=eastwest;fontColor=#FFFFFF;rounded=0;" vertex="1" parent="74">
                    <mxGeometry y="90" width="230" height="20" as="geometry"/>
                </mxCell>
                <mxCell id="79" value="monthlyData : Array&amp;lt;Object&amp;gt;" style="text;html=1;strokeColor=none;fillColor=none;align=left;verticalAlign=middle;spacingLeft=4;spacingRight=4;overflow=hidden;rotatable=0;points=[[0,0.5],[1,0.5]];portConstraint=eastwest;fontColor=#FFFFFF;rounded=0;" vertex="1" parent="74">
                    <mxGeometry y="110" width="230" height="20" as="geometry"/>
                </mxCell>
                <mxCell id="85" value="dailyData : Array&amp;lt;Object&amp;gt;" style="text;html=1;strokeColor=none;fillColor=none;align=left;verticalAlign=middle;spacingLeft=4;spacingRight=4;overflow=hidden;rotatable=0;points=[[0,0.5],[1,0.5]];portConstraint=eastwest;fontColor=#FFFFFF;rounded=0;" vertex="1" parent="74">
                    <mxGeometry y="130" width="230" height="20" as="geometry"/>
                </mxCell>
                <mxCell id="84" value="totalCustomers : Number" style="text;html=1;strokeColor=none;fillColor=none;align=left;verticalAlign=middle;spacingLeft=4;spacingRight=4;overflow=hidden;rotatable=0;points=[[0,0.5],[1,0.5]];portConstraint=eastwest;fontColor=#FFFFFF;rounded=0;" vertex="1" parent="74">
                    <mxGeometry y="150" width="230" height="20" as="geometry"/>
                </mxCell>
                <mxCell id="87" value="salesByCategory : Map&amp;lt;String: Number&amp;gt;" style="text;html=1;strokeColor=none;fillColor=none;align=left;verticalAlign=middle;spacingLeft=4;spacingRight=4;overflow=hidden;rotatable=0;points=[[0,0.5],[1,0.5]];portConstraint=eastwest;fontColor=#FFFFFF;rounded=0;" vertex="1" parent="74">
                    <mxGeometry y="170" width="230" height="20" as="geometry"/>
                </mxCell>
                <mxCell id="88" value="User" style="swimlane;fontStyle=0;align=center;verticalAlign=top;childLayout=stackLayout;horizontal=1;startSize=30;horizontalStack=0;resizeParent=1;resizeParentMax=0;resizeLast=0;collapsible=0;marginBottom=0;html=1;rounded=0;" vertex="1" parent="1">
                    <mxGeometry x="530" y="240" width="190" height="250" as="geometry"/>
                </mxCell>
                <mxCell id="89" value="&lt;font color=&quot;#ffffff&quot;&gt;_id : String&lt;/font&gt;" style="text;html=1;strokeColor=none;fillColor=none;align=left;verticalAlign=middle;spacingLeft=4;spacingRight=4;overflow=hidden;rotatable=0;points=[[0,0.5],[1,0.5]];portConstraint=eastwest;fontColor=#808080;rounded=0;" vertex="1" parent="88">
                    <mxGeometry y="30" width="190" height="20" as="geometry"/>
                </mxCell>
                <mxCell id="90" value="email : String" style="text;html=1;strokeColor=none;fillColor=none;align=left;verticalAlign=middle;spacingLeft=4;spacingRight=4;overflow=hidden;rotatable=0;points=[[0,0.5],[1,0.5]];portConstraint=eastwest;fontColor=#FFFFFF;rounded=0;" vertex="1" parent="88">
                    <mxGeometry y="50" width="190" height="20" as="geometry"/>
                </mxCell>
                <mxCell id="91" value="name : String" style="text;html=1;strokeColor=none;fillColor=none;align=left;verticalAlign=middle;spacingLeft=4;spacingRight=4;overflow=hidden;rotatable=0;points=[[0,0.5],[1,0.5]];portConstraint=eastwest;fontColor=#FFFFFF;rounded=0;" vertex="1" parent="88">
                    <mxGeometry y="70" width="190" height="20" as="geometry"/>
                </mxCell>
                <mxCell id="92" value="password : String" style="text;html=1;strokeColor=none;fillColor=none;align=left;verticalAlign=middle;spacingLeft=4;spacingRight=4;overflow=hidden;rotatable=0;points=[[0,0.5],[1,0.5]];portConstraint=eastwest;fontColor=#FFFFFF;rounded=0;" vertex="1" parent="88">
                    <mxGeometry y="90" width="190" height="20" as="geometry"/>
                </mxCell>
                <mxCell id="93" value="city : String" style="text;html=1;strokeColor=none;fillColor=none;align=left;verticalAlign=middle;spacingLeft=4;spacingRight=4;overflow=hidden;rotatable=0;points=[[0,0.5],[1,0.5]];portConstraint=eastwest;fontColor=#FFFFFF;rounded=0;" vertex="1" parent="88">
                    <mxGeometry y="110" width="190" height="20" as="geometry"/>
                </mxCell>
                <mxCell id="94" value="state : String" style="text;html=1;strokeColor=none;fillColor=none;align=left;verticalAlign=middle;spacingLeft=4;spacingRight=4;overflow=hidden;rotatable=0;points=[[0,0.5],[1,0.5]];portConstraint=eastwest;fontColor=#FFFFFF;rounded=0;" vertex="1" parent="88">
                    <mxGeometry y="130" width="190" height="20" as="geometry"/>
                </mxCell>
                <mxCell id="95" value="country : String" style="text;html=1;strokeColor=none;fillColor=none;align=left;verticalAlign=middle;spacingLeft=4;spacingRight=4;overflow=hidden;rotatable=0;points=[[0,0.5],[1,0.5]];portConstraint=eastwest;fontColor=#FFFFFF;rounded=0;" vertex="1" parent="88">
                    <mxGeometry y="150" width="190" height="20" as="geometry"/>
                </mxCell>
                <mxCell id="96" value="occupation : String" style="text;html=1;strokeColor=none;fillColor=none;align=left;verticalAlign=middle;spacingLeft=4;spacingRight=4;overflow=hidden;rotatable=0;points=[[0,0.5],[1,0.5]];portConstraint=eastwest;fontColor=#FFFFFF;rounded=0;" vertex="1" parent="88">
                    <mxGeometry y="170" width="190" height="20" as="geometry"/>
                </mxCell>
                <mxCell id="99" value="phoneNumber : String" style="text;html=1;strokeColor=none;fillColor=none;align=left;verticalAlign=middle;spacingLeft=4;spacingRight=4;overflow=hidden;rotatable=0;points=[[0,0.5],[1,0.5]];portConstraint=eastwest;fontColor=#FFFFFF;rounded=0;" vertex="1" parent="88">
                    <mxGeometry y="190" width="190" height="20" as="geometry"/>
                </mxCell>
                <mxCell id="98" value="role : String" style="text;html=1;strokeColor=none;fillColor=none;align=left;verticalAlign=middle;spacingLeft=4;spacingRight=4;overflow=hidden;rotatable=0;points=[[0,0.5],[1,0.5]];portConstraint=eastwest;fontColor=#FFFFFF;rounded=0;" vertex="1" parent="88">
                    <mxGeometry y="210" width="190" height="20" as="geometry"/>
                </mxCell>
                <mxCell id="97" value="transactions : Array&amp;lt;String Ref&amp;gt;" style="text;html=1;strokeColor=none;fillColor=none;align=left;verticalAlign=middle;spacingLeft=4;spacingRight=4;overflow=hidden;rotatable=0;points=[[0,0.5],[1,0.5]];portConstraint=eastwest;fontColor=#FFFFFF;rounded=0;" vertex="1" parent="88">
                    <mxGeometry y="230" width="190" height="20" as="geometry"/>
                </mxCell>
                <mxCell id="101" style="edgeStyle=none;html=1;exitX=1;exitY=0.5;exitDx=0;exitDy=0;entryX=0;entryY=0.5;entryDx=0;entryDy=0;rounded=0;" edge="1" parent="1" source="11" target="89">
                    <mxGeometry relative="1" as="geometry">
                        <Array as="points">
                            <mxPoint x="460" y="280"/>
                        </Array>
                    </mxGeometry>
                </mxCell>
                <mxCell id="102" style="edgeStyle=none;html=1;exitX=0;exitY=0.5;exitDx=0;exitDy=0;entryX=1;entryY=0.5;entryDx=0;entryDy=0;rounded=0;" edge="1" parent="1" source="97" target="69">
                    <mxGeometry relative="1" as="geometry">
                        <Array as="points">
                            <mxPoint x="470" y="480"/>
                            <mxPoint x="470" y="410"/>
                        </Array>
                    </mxGeometry>
                </mxCell>
                <mxCell id="103" value="ProductStat" style="swimlane;fontStyle=0;align=center;verticalAlign=top;childLayout=stackLayout;horizontal=1;startSize=30;horizontalStack=0;resizeParent=1;resizeParentMax=0;resizeLast=0;collapsible=0;marginBottom=0;html=1;rounded=0;" vertex="1" parent="1">
                    <mxGeometry x="70" y="560" width="230" height="170" as="geometry"/>
                </mxCell>
                <mxCell id="104" value="&lt;font color=&quot;#ffffff&quot;&gt;_id : String&lt;/font&gt;" style="text;html=1;strokeColor=none;fillColor=none;align=left;verticalAlign=middle;spacingLeft=4;spacingRight=4;overflow=hidden;rotatable=0;points=[[0,0.5],[1,0.5]];portConstraint=eastwest;fontColor=#808080;rounded=0;" vertex="1" parent="103">
                    <mxGeometry y="30" width="230" height="20" as="geometry"/>
                </mxCell>
                <mxCell id="105" value="productId : String Ref" style="text;html=1;strokeColor=none;fillColor=none;align=left;verticalAlign=middle;spacingLeft=4;spacingRight=4;overflow=hidden;rotatable=0;points=[[0,0.5],[1,0.5]];portConstraint=eastwest;fontColor=#FFFFFF;rounded=0;" vertex="1" parent="103">
                    <mxGeometry y="50" width="230" height="20" as="geometry"/>
                </mxCell>
                <mxCell id="106" value="yearlySalesTotal : Currency" style="text;html=1;strokeColor=none;fillColor=none;align=left;verticalAlign=middle;spacingLeft=4;spacingRight=4;overflow=hidden;rotatable=0;points=[[0,0.5],[1,0.5]];portConstraint=eastwest;fontColor=#FFFFFF;rounded=0;" vertex="1" parent="103">
                    <mxGeometry y="70" width="230" height="20" as="geometry"/>
                </mxCell>
                <mxCell id="107" value="yearlyTotalSoldUnits : Number" style="text;html=1;strokeColor=none;fillColor=none;align=left;verticalAlign=middle;spacingLeft=4;spacingRight=4;overflow=hidden;rotatable=0;points=[[0,0.5],[1,0.5]];portConstraint=eastwest;fontColor=#FFFFFF;rounded=0;" vertex="1" parent="103">
                    <mxGeometry y="90" width="230" height="20" as="geometry"/>
                </mxCell>
                <mxCell id="108" value="year : Number" style="text;html=1;strokeColor=none;fillColor=none;align=left;verticalAlign=middle;spacingLeft=4;spacingRight=4;overflow=hidden;rotatable=0;points=[[0,0.5],[1,0.5]];portConstraint=eastwest;fontColor=#FFFFFF;rounded=0;" vertex="1" parent="103">
                    <mxGeometry y="110" width="230" height="20" as="geometry"/>
                </mxCell>
                <mxCell id="109" value="monthlyData : Array&amp;lt;Object&amp;gt;" style="text;html=1;strokeColor=none;fillColor=none;align=left;verticalAlign=middle;spacingLeft=4;spacingRight=4;overflow=hidden;rotatable=0;points=[[0,0.5],[1,0.5]];portConstraint=eastwest;fontColor=#FFFFFF;rounded=0;" vertex="1" parent="103">
                    <mxGeometry y="130" width="230" height="20" as="geometry"/>
                </mxCell>
                <mxCell id="110" value="dailyData : Array&amp;lt;Object&amp;gt;" style="text;html=1;strokeColor=none;fillColor=none;align=left;verticalAlign=middle;spacingLeft=4;spacingRight=4;overflow=hidden;rotatable=0;points=[[0,0.5],[1,0.5]];portConstraint=eastwest;fontColor=#FFFFFF;rounded=0;" vertex="1" parent="103">
                    <mxGeometry y="150" width="230" height="20" as="geometry"/>
                </mxCell>
                <mxCell id="112" value="Product" style="swimlane;fontStyle=0;align=center;verticalAlign=top;childLayout=stackLayout;horizontal=1;startSize=30;horizontalStack=0;resizeParent=1;resizeParentMax=0;resizeLast=0;collapsible=0;marginBottom=0;html=1;rounded=0;" vertex="1" parent="1">
                    <mxGeometry x="530" y="560" width="190" height="170" as="geometry"/>
                </mxCell>
                <mxCell id="113" value="&lt;font color=&quot;#ffffff&quot;&gt;_id : String&lt;/font&gt;" style="text;html=1;strokeColor=none;fillColor=none;align=left;verticalAlign=middle;spacingLeft=4;spacingRight=4;overflow=hidden;rotatable=0;points=[[0,0.5],[1,0.5]];portConstraint=eastwest;fontColor=#808080;rounded=0;" vertex="1" parent="112">
                    <mxGeometry y="30" width="190" height="20" as="geometry"/>
                </mxCell>
                <mxCell id="115" value="name : String" style="text;html=1;strokeColor=none;fillColor=none;align=left;verticalAlign=middle;spacingLeft=4;spacingRight=4;overflow=hidden;rotatable=0;points=[[0,0.5],[1,0.5]];portConstraint=eastwest;fontColor=#FFFFFF;rounded=0;" vertex="1" parent="112">
                    <mxGeometry y="50" width="190" height="20" as="geometry"/>
                </mxCell>
                <mxCell id="116" value="price : String" style="text;html=1;strokeColor=none;fillColor=none;align=left;verticalAlign=middle;spacingLeft=4;spacingRight=4;overflow=hidden;rotatable=0;points=[[0,0.5],[1,0.5]];portConstraint=eastwest;fontColor=#FFFFFF;rounded=0;" vertex="1" parent="112">
                    <mxGeometry y="70" width="190" height="20" as="geometry"/>
                </mxCell>
                <mxCell id="117" value="description : String" style="text;html=1;strokeColor=none;fillColor=none;align=left;verticalAlign=middle;spacingLeft=4;spacingRight=4;overflow=hidden;rotatable=0;points=[[0,0.5],[1,0.5]];portConstraint=eastwest;fontColor=#FFFFFF;rounded=0;" vertex="1" parent="112">
                    <mxGeometry y="90" width="190" height="20" as="geometry"/>
                </mxCell>
                <mxCell id="118" value="category : String" style="text;html=1;strokeColor=none;fillColor=none;align=left;verticalAlign=middle;spacingLeft=4;spacingRight=4;overflow=hidden;rotatable=0;points=[[0,0.5],[1,0.5]];portConstraint=eastwest;fontColor=#FFFFFF;rounded=0;" vertex="1" parent="112">
                    <mxGeometry y="110" width="190" height="20" as="geometry"/>
                </mxCell>
                <mxCell id="119" value="rating : Number" style="text;html=1;strokeColor=none;fillColor=none;align=left;verticalAlign=middle;spacingLeft=4;spacingRight=4;overflow=hidden;rotatable=0;points=[[0,0.5],[1,0.5]];portConstraint=eastwest;fontColor=#FFFFFF;rounded=0;" vertex="1" parent="112">
                    <mxGeometry y="130" width="190" height="20" as="geometry"/>
                </mxCell>
                <mxCell id="120" value="supply : Number" style="text;html=1;strokeColor=none;fillColor=none;align=left;verticalAlign=middle;spacingLeft=4;spacingRight=4;overflow=hidden;rotatable=0;points=[[0,0.5],[1,0.5]];portConstraint=eastwest;fontColor=#FFFFFF;rounded=0;" vertex="1" parent="112">
                    <mxGeometry y="150" width="190" height="20" as="geometry"/>
                </mxCell>
                <mxCell id="124" style="edgeStyle=none;html=1;exitX=1;exitY=0.5;exitDx=0;exitDy=0;entryX=0;entryY=0.5;entryDx=0;entryDy=0;rounded=0;" edge="1" parent="1" source="69">
                    <mxGeometry relative="1" as="geometry">
                        <mxPoint x="290" y="350" as="sourcePoint"/>
                        <mxPoint x="530" y="600" as="targetPoint"/>
                        <Array as="points">
                            <mxPoint x="410" y="410"/>
                            <mxPoint x="410" y="600"/>
                        </Array>
                    </mxGeometry>
                </mxCell>
                <mxCell id="125" style="edgeStyle=none;html=1;exitX=1;exitY=0.5;exitDx=0;exitDy=0;entryX=0;entryY=0.5;entryDx=0;entryDy=0;rounded=0;" edge="1" parent="1" source="105" target="113">
                    <mxGeometry relative="1" as="geometry">
                        <Array as="points">
                            <mxPoint x="500" y="620"/>
                            <mxPoint x="500" y="600"/>
                        </Array>
                    </mxGeometry>
                </mxCell>
            </root>
        </mxGraphModel>
    </diagram>
</mxfile>